<svg xmlns="http://www.w3.org/2000/svg" version="1.1" xmlns:xlink="http://www.w3.org/1999/xlink" xmlns:svgjs="http://svgjs.dev/svgjs" width="1000" height="111" viewBox="0 0 1000 111"><g transform="matrix(1,0,0,1,-0.6060405740218471,-0.046591666576617286)"><svg viewBox="0 0 396 44" data-background-color="#ffffff" preserveAspectRatio="xMidYMid meet" height="111" width="1000" xmlns="http://www.w3.org/2000/svg" xmlns:xlink="http://www.w3.org/1999/xlink"><g id="tight-bounds" transform="matrix(1,0,0,1,0.23999229573985303,0.01846876873307224)"><svg viewBox="0 0 395.52 43.963062462533834" height="43.963062462533834" width="395.52"><g><svg viewBox="0 0 469.5567486878648 52.192436974789906" height="43.963062462533834" width="395.52"><g><rect width="4.683351073613445" height="52.192436974789906" x="57.09331626971357" y="0" fill="#0718c4" opacity="1" stroke-width="0" stroke="transparent" fill-opacity="1" class="rect-o-0" data-fill-palette-color="primary" rx="1%" id="o-0" data-palette-color="#0718c4"></rect></g><g transform="matrix(1,0,0,1,74.03674868786483,0.1298319327731079)"><svg viewBox="0 0 395.52 51.93277310924369" height="51.93277310924369" width="395.52"><g id="textblocktransform"><svg viewBox="0 0 395.52 51.93277310924369" height="51.93277310924369" width="395.52" id="textblock"><g><svg viewBox="0 0 395.52 51.93277310924369" height="51.93277310924369" width="395.52"><g transform="matrix(1,0,0,1,0,0)"><svg width="395.52" viewBox="1.600000023841858 -36.900001525878906 285.5799865722656 37.5" height="51.93277310924369" data-palette-color="#0718c4"><path d="M14-36.9L14-36.9Q16.5-36.9 18.88-36.2 21.25-35.5 23.4-34.2L23.4-34.2 21.1-30.85Q19.55-32 17.73-32.68 15.9-33.35 13.95-33.35L13.95-33.35Q11.3-33.35 9.45-32.02 7.6-30.7 7.6-27.8L7.6-27.8Q7.6-26.2 8.47-25.08 9.35-23.95 10.8-23.1 12.25-22.25 13.95-21.45L13.95-21.45Q15.7-20.65 17.53-19.7 19.35-18.75 20.88-17.48 22.4-16.2 23.33-14.38 24.25-12.55 24.25-9.9L24.25-9.9Q24.25-6.3 22.5-3.98 20.75-1.65 17.9-0.53 15.05 0.6 11.75 0.6L11.75 0.6Q9.05 0.6 6.53-0.13 4-0.85 1.6-2.1L1.6-2.1 3.4-6.2Q5.05-4.8 7.4-3.9 9.75-3 11.9-3L11.9-3Q13.55-3 15.25-3.63 16.95-4.25 18.1-5.65 19.25-7.05 19.25-9.25L19.25-9.25Q19.25-11.45 18.2-12.88 17.15-14.3 15.45-15.28 13.75-16.25 11.85-17.15L11.85-17.15Q10.2-17.95 8.55-18.8 6.9-19.65 5.55-20.8 4.2-21.95 3.4-23.55 2.6-25.15 2.6-27.4L2.6-27.4Q2.6-30.55 4.28-32.65 5.95-34.75 8.58-35.83 11.2-36.9 14-36.9ZM29.35-36.4L34.85-36.4 34.85-12.2Q34.85-7.95 36.95-5.4 39.05-2.85 43.55-2.85L43.55-2.85Q48.2-2.85 50.57-5.65 52.95-8.45 52.95-12.9L52.95-12.9 52.95-36.4 56.8-36.4 56.8-12.9Q56.8-8.7 55.22-5.68 53.65-2.65 50.65-1.03 47.65 0.6 43.35 0.6L43.35 0.6Q37.1 0.6 33.6-2.65 30.1-5.9 30.1-12.2L30.1-12.2 30.1-33.1 29.35-36.4ZM64.84-36.4L71.59-36.4 80.45-12.75Q80.9-11.5 81.32-10.3 81.75-9.1 82.2-7.55L82.2-7.55Q82.59-9.05 83-10.23 83.4-11.4 83.84-12.6L83.84-12.6 92.65-36.4 98.7-36.4 98.7 0 94.09 0 94.09-26.35Q94.09-27.25 94.15-28.1 94.2-28.95 94.25-30L94.25-30Q93.95-29.2 93.59-28.35 93.25-27.5 92.95-26.65L92.95-26.65 83.15 0.05 80.34 0.05 70.45-26.9Q70.2-27.65 69.84-28.48 69.5-29.3 69.25-30L69.25-30Q69.34-29.05 69.37-28.25 69.4-27.45 69.4-26.6L69.4-26.6 69.4 0 65.59 0 65.59-33.1 64.84-36.4ZM106.74-36.4L113.49-36.4 122.34-12.75Q122.79-11.5 123.22-10.3 123.64-9.1 124.09-7.55L124.09-7.55Q124.49-9.05 124.89-10.23 125.29-11.4 125.74-12.6L125.74-12.6 134.54-36.4 140.59-36.4 140.59 0 135.99 0 135.99-26.35Q135.99-27.25 136.04-28.1 136.09-28.95 136.14-30L136.14-30Q135.84-29.2 135.49-28.35 135.14-27.5 134.84-26.65L134.84-26.65 125.04 0.05 122.24 0.05 112.34-26.9Q112.09-27.65 111.74-28.48 111.39-29.3 111.14-30L111.14-30Q111.24-29.05 111.27-28.25 111.29-27.45 111.29-26.6L111.29-26.6 111.29 0 107.49 0 107.49-33.1 106.74-36.4ZM158.49-36.4L163.04-36.4 175.64 0 170.49 0 166.29-12.5 154.29-12.5 150.04 0 145.84 0 158.49-36.4ZM165.14-15.9L160.34-30.3 155.44-15.9 165.14-15.9ZM180.74-33.1L180.04-36.4 190.89-36.4Q194.34-36.4 197.14-35.52 199.94-34.65 201.56-32.45 203.19-30.25 203.19-26.35L203.19-26.35Q203.19-24.35 202.24-22.5 201.29-20.65 199.71-19.28 198.14-17.9 196.24-17.3L196.24-17.3 206.44 0 201.04 0 191.64-16.35 185.39-16.35 185.39 0 180.74 0 180.74-33.1ZM190.89-32.95L185.39-32.95 185.39-19.75 189.39-19.75Q191.89-19.75 193.91-20.33 195.94-20.9 197.14-22.4 198.34-23.9 198.34-26.65L198.34-26.65Q198.34-28.8 197.29-30.18 196.24-31.55 194.54-32.25 192.84-32.95 190.89-32.95L190.89-32.95ZM207.64-36.4L213.04-36.4 221.49-22.25 229.34-36.4 233.69-36.4 223.24-18 223.24 0 218.49 0 218.49-18 207.64-36.4ZM243.93-2.8L243.93-2.8Q243.93-1.45 242.96-0.48 241.98 0.5 240.63 0.5L240.63 0.5Q239.28 0.5 238.31-0.48 237.33-1.45 237.33-2.8L237.33-2.8Q237.33-4.2 238.28-5.15 239.23-6.1 240.63-6.1L240.63-6.1Q241.98-6.1 242.96-5.13 243.93-4.15 243.93-2.8ZM260.18-36.4L264.73-36.4 277.33 0 272.18 0 267.98-12.5 255.98-12.5 251.73 0 247.53 0 260.18-36.4ZM266.83-15.9L262.03-30.3 257.13-15.9 266.83-15.9ZM281.83-36.4L281.83-36.4 287.18-36.4 287.18 0 282.53 0 282.53-33.1Q282.53-33.15 282.35-33.9 282.18-34.65 282.03-35.45 281.88-36.25 281.83-36.4Z" opacity="1" transform="matrix(1,0,0,1,0,0)" fill="#0718c4" class="undefined-text-0" data-fill-palette-color="primary" id="text-0"></path></svg></g></svg></g></svg></g></svg></g><g transform="matrix(1,0,0,1,0,0.12983193277311145)"><svg viewBox="0 0 44.83323492517575 51.93277310924368" height="51.93277310924368" width="44.83323492517575"><g><svg xmlns="http://www.w3.org/2000/svg" xmlns:xlink="http://www.w3.org/1999/xlink" version="1.1" x="0" y="0" viewBox="9.63800048828125 3.246999979019165 80.7239990234375 93.50699615478516" enable-background="new 0 0 100 100" xml:space="preserve" height="51.93277310924368" width="44.83323492517575" class="icon-icon-0" data-fill-palette-color="accent" id="icon-0"><g fill="#0718c4" data-fill-palette-color="accent"><g fill="#0718c4" data-fill-palette-color="accent"><polygon points="36.703,11.011 9.638,26.636 9.638,38.757 36.703,23.131 63.767,38.757 63.767,26.636   " fill="#0718c4" data-fill-palette-color="accent"></polygon></g><g fill="#0718c4" data-fill-palette-color="accent"><polygon points="63.298,89.092 36.233,73.467 36.233,61.348 63.298,76.973 90.362,61.348 90.362,73.467   " fill="#0718c4" data-fill-palette-color="accent"></polygon></g><g fill="#0718c4" data-fill-palette-color="accent"><polygon points="9.638,42.012 36.703,26.386 47.198,32.446 20.134,48.072 20.134,79.324 9.638,73.264   " fill="#0718c4" data-fill-palette-color="accent"></polygon></g><g fill="#0718c4" data-fill-palette-color="accent"><polygon points="77.083,18.872 50.018,3.247 39.522,9.307 66.586,24.932 66.586,56.184 77.083,50.124   " fill="#0718c4" data-fill-palette-color="accent"></polygon></g><g fill="#0718c4" data-fill-palette-color="accent"><polygon points="23.01,81.127 23.011,49.876 33.507,43.816 33.507,75.068 60.571,90.693 50.075,96.754   " fill="#0718c4" data-fill-palette-color="accent"></polygon></g><g fill="#0718c4" data-fill-palette-color="accent"><polygon points="90.362,58.092 90.362,26.84 79.866,20.78 79.866,52.031 52.802,67.658 63.298,73.719   " fill="#0718c4" data-fill-palette-color="accent"></polygon></g></g></svg></g></svg></g></svg></g><defs></defs></svg><rect width="395.52" height="43.963062462533834" fill="none" stroke="none" visibility="hidden"></rect></g></svg></g></svg>